<svg width="10" height="6" viewBox="0 0 10 6" fill="none" xmlns="http://www.w3.org/2000/svg">
<path d="M5.32409 4.67951L8.84084 1.16276C8.96045 1.04315 9.10001 0.985331 9.2595 0.989318C9.41899 0.993306 9.55854 1.05511 9.67816 1.17473C9.79778 1.29434 9.85758 1.4339 9.85758 1.59339C9.85758 1.75287 9.79778 1.89243 9.67816 2.01205L6.00591 5.69626C5.91022 5.79195 5.80256 5.86372 5.68294 5.91157C5.56333 5.95941 5.44371 5.98334 5.32409 5.98334C5.20447 5.98334 5.08486 5.95941 4.96524 5.91157C4.84562 5.86372 4.73797 5.79195 4.64227 5.69626L0.958062 2.01205C0.838445 1.89243 0.78063 1.75088 0.784617 1.5874C0.788604 1.42393 0.850406 1.28238 0.970024 1.16276C1.08964 1.04315 1.22919 0.983337 1.38868 0.983337C1.54817 0.983337 1.68773 1.04315 1.80734 1.16276L5.32409 4.67951Z" fill="#4F4F4F"/>
</svg>
